<svg xmlns="http://www.w3.org/2000/svg" viewBox="0 0 16 16">
    <style type="text/css">
        .st-cart {
            fill: #FFFFFF;
        }
    </style>
    <path class="st-cart" d="M4.8,12.8c-0.9,0-1.6,0.7-1.6,1.6c0,0.9,0.7,1.6,1.6,1.6s1.6-0.7,1.6-1.6C6.4,13.5,5.7,12.8,4.8,12.8L4.8,12.8
        z M0,0v1.6h1.6l2.9,6.1L3.4,9.6c-0.1,0.2-0.2,0.6-0.2,0.8c0,0.9,0.7,1.6,1.6,1.6h9.6v-1.6H5.1C5,10.4,5,10.3,5,10.2v-0.1l0.7-1.4
        h5.9c0.6,0,1.1-0.3,1.4-0.8l2.9-5.2C16,2.6,16,2.6,16,2.4c0-0.5-0.3-0.8-0.8-0.8H3.4L2.6,0H0z M12.8,12.8c-0.9,0-1.6,0.7-1.6,1.6
        c0,0.9,0.7,1.6,1.6,1.6s1.6-0.7,1.6-1.6C14.4,13.5,13.7,12.8,12.8,12.8L12.8,12.8z M12.8,12.8" />
</svg>