<svg xmlns="http://www.w3.org/2000/svg" viewBox="0 0 73.8 123.5" style="enable-background:new 0 0 73.8 123.5;"
    class="leaves1">
    <style type="text/css">
        .leaves1-0 {
            fill: #00853F;
        }

        .leaves1-1 {
            fill: #A6CE39;
        }

        .leaves1-2 {
            opacity: 0.3;
            fill: #00B259;
        }

        .leaves1-3 {
            opacity: 0.5;
            fill: #FFFFFF;
        }

        .leaves1-4 {
            opacity: 0.4;
            fill: #FFFFFF;
        }

        .leaves1-5 {
            fill: #00A94F;
        }

        .leaves1-6 {
            fill: #48B749;
        }
    </style>
    <g>
        <g>
            <path class="leaves1-0" d="M69.4,19.1c0,0-8.8,1.5-17.4,1.3c-8.2-0.1-21.5,3.2-28.2,16.7c-6.7,13.5-6.4,19.4-8.2,21.5c0,0,4.8,2.5,6.4,3
                                c5.7,1.7,20,3,29.6-5.8C61.5,46.7,68.1,33.4,69.4,19.1z" />
            <path class="leaves1-1" d="M60,41.7c-7.6,0.9-15.1-3.6-15.1-3.6c0.5-0.3,0.9-0.6,1.4-0.9c8.6-5.4,23.1-18.2,23.1-18.2
                                s-16.7,13.7-23,16.5c0,0-0.8-9.6,4.2-13.9c0,0-6,3.9-5.5,14.5c-2.2,1.2-5.6,3.5-9.2,6c0,0-1.4-11.1,2-17.9c0,0-4.4,7.5-3.1,18.6
                                l0.1-0.1c-3,2.1-6.1,4.4-8.8,6.4l0.5-0.3c0,0-1.6-7.8,0.6-14.5c0,0-3,7-1.7,15.3l0.6-0.4c-5.3,3.9-9.4,7.1-9.4,7.1l-1,2
                                c2.6-1.3,9.7-6.5,16.9-11.7C45.1,55.7,52.3,52,52.3,52c-8.2,1.8-17.8-5-18.9-5.8c3.8-2.8,7.6-5.5,10.7-7.5
                                C52.3,43.7,60,41.7,60,41.7z" />
            <path class="leaves1-2" d="M52,47.5c-11.6,9.7-21.8,6.9-27.4,7.1c-3.7,0.1-6.4,2.6-8.9,4c0.8,0.4,4.8,2.5,6.3,2.9c5.7,1.7,20,3,29.6-5.8
                                c8-7.3,13.8-17.3,16.5-28.4l1.3-8.2C69.4,19.1,63.6,37.8,52,47.5z" />
            <path class="leaves1-3" d="M66.5,29.5c0,0-4.6,22.3-24.4,29.9c-9,3.5-19,2.3-26.2-1.5C15.9,57.9,48.1,70.5,66.5,29.5z" />
            <path class="leaves1-4" d="M19.4,51.6c0,0,2.6-17.2,15.9-25.5c6.7-4.2,15.2-5.3,22.4-3.8C57.8,22.3,30.4,19.4,19.4,51.6z" />
        </g>
        <path class="leaves1-5" d="M45.7,4.5c0,0-6.8,4.5-14,7.7C24.8,15.2,15,23,14.5,36.7c-0.5,13.8,2,18.6,1.3,21c0,0,4.9,0.3,6.5,0.1
                            c5.4-0.7,17.8-5.1,22.5-16C49.6,30.5,50.1,16.9,45.7,4.5z" />
        <g>
            <path class="leaves1-5" d="M44.5,0c0,0-6.8,4.5-14,7.7c-6.9,3-16.7,10.8-17.2,24.6c-0.5,13.8,2,18.6,1.3,21c0,0,4.9,0.3,6.5,0.1
                                c5.4-0.7,17.8-5.1,22.5-16.1C48.4,26.1,48.9,12.4,44.5,0z" />
            <path class="leaves1-1" d="M45.3,22.4c-6,3.7-13.9,2.7-14,2.7c0.3-0.4,0.6-0.9,0.8-1.2C37.2,16.2,44.5,0,44.5,0s-8.7,17.7-13,22.5
                                c0,0-4.3-7.7-1.7-13.2c0,0-3.5,5.5,0.9,14.2c-1.4,1.9-3.3,5-5.4,8.5c0,0-5.3-8.7-5.1-15.7c0,0-0.8,7.9,4.5,16.7l0.1-0.1
                                c-1.7,2.9-3.4,5.9-4.9,8.7l0.3-0.5c0,0-4.3-5.9-5-12.3c0,0,0.1,7,4.4,13.4l0.3-0.6c-2.9,5.3-5.2,9.5-5.2,9.5l-0.1,2
                                c1.7-2.1,5.6-9.1,9.6-16.1c13.9,2.5,18.5-3.3,18.5-3.3c-6.2,4.6-16.7,2.6-17.9,2.3c2.2-3.8,4.3-7.5,6.1-10.3
                                C39.6,27,45.3,22.4,45.3,22.4z" />
            <path class="leaves1-2" d="M40.8,30.3c-6,12.5-15.6,14-20.1,16.3c-3,1.5-4.4,4.6-5.9,6.7c0.8,0,4.9,0.2,6.3,0
                                c5.4-0.7,17.8-5.1,22.5-16.1c3.9-9.1,5-19.7,3-30l-2-7.4C44.5,0,46.8,17.8,40.8,30.3z" />
            <path class="leaves1-3" d="M46,9.8c0,0,4.6,20.4-9,34.2c-6.1,6.3-15,9.1-22.4,8.7C14.6,52.7,46.2,50.9,46,9.8z" />
            <path class="leaves1-4" d="M15.2,46c0,0-4.4-15.3,3.6-27.3c4-6,10.7-10.2,17.3-11.7C36.1,7.1,12.1,15,15.2,46z" />
        </g>
        <path class="leaves1-5" d="M58.2,68.3c0,0-5.8-5.7-10.3-12.2c-4.3-6.2-13.9-14.3-27.5-12C6.7,46.3,2.5,49.7,0,49.5c0,0,0.7,4.9,1.2,6.4
                            C3,61,9.7,72.3,21.4,74.7C33.4,77.2,46.9,75.1,58.2,68.3z" />
        <g>
            <path class="leaves1-6" d="M62.1,73.9c0,0-5.4-6.1-9.4-12.9c-3.9-6.5-12.9-15.2-26.6-13.9C12.3,48.4,7.8,51.4,5.4,51
                                c0,0,0.4,4.9,0.8,6.5c1.4,5.2,7.3,17,18.8,20.3C36.7,81.1,50.3,79.9,62.1,73.9z" />
            <path class="leaves1-1" d="M39.9,77.6c-4.4-5.4-4.5-13.5-4.5-13.5c0.5,0.2,0.9,0.4,1.3,0.6c8.3,4.1,25.3,9.3,25.3,9.3s-18.7-6.4-24-10
                                c0,0,7.1-5.2,12.9-3.4c0,0-5.9-2.8-14,2.7c-2-1.1-5.4-2.7-9.2-4.3c0,0,8-6.4,14.9-7c0,0-8,0.2-16,6.6l0.1,0
                                c-3.1-1.3-6.3-2.6-9.3-3.8L18,55c0,0,5.3-5,11.5-6.5c0,0-6.9,1-12.7,6l0.6,0.2c-5.6-2.2-10.1-3.9-10.1-3.9l-2,0.2
                                c2.3,1.4,9.7,4.4,17.2,7.5c-0.7,14.1,5.6,17.9,5.6,17.9C22.8,71,23.5,60.2,23.6,59c4,1.7,8,3.3,11,4.7
                                C34.6,72.5,39.9,77.6,39.9,77.6z" />
            <path class="leaves1-2" d="M31.5,74.1c-13.2-4.4-15.9-13.7-18.8-17.9c-1.9-2.8-5.1-3.8-7.4-5c0.1,0.8,0.4,4.9,0.8,6.3
                                c1.4,5.2,7.3,17,18.8,20.3c9.5,2.7,20.2,2.4,30.1-0.9l7-2.9C62.1,73.9,44.7,78.5,31.5,74.1z"
            />
            <path class="leaves1-3" d="M52.5,76.7c0,0-19.6,7.2-35-4.6C10.5,66.8,6.6,58.4,6,51C6,51,11.8,82.2,52.5,76.7z" />
            <path class="leaves1-4" d="M12.7,50.7c0,0,14.6-6.3,27.5,0.1c6.5,3.2,11.5,9.3,13.8,15.7C53.9,66.5,43,43.8,12.7,50.7z" />
        </g>
    </g>
    <g>
        <g>
            <path class="leaves1-0" d="M73.8,57.8c0,0-8.8,2.4-17.7,3.2c-8.5,0.8-21.8,5.6-27.2,20.1c-5.5,14.6-4.6,20.6-6.2,22.9c0,0,5.2,2,6.9,2.4
                                c6,1.1,20.8,0.9,29.8-9.1C68.6,87.1,74.1,72.7,73.8,57.8z" />
            <path class="leaves1-1" d="M66.6,82C58.9,83.8,50.7,80,50.7,80c0.5-0.4,0.9-0.7,1.3-1c8.3-6.4,21.8-21.1,21.8-21.1S58.2,73.6,51.9,77.2
                                c0,0-1.8-9.8,2.9-14.7c0,0-5.7,4.6-4.1,15.5c-2.2,1.5-5.4,4.2-8.8,7.2c0,0-2.6-11.2,0.2-18.6c0,0-3.7,8.2-1.2,19.5l0.1-0.1
                                c-2.8,2.5-5.8,5.1-8.4,7.5l0.4-0.4c0,0-2.5-7.9-0.9-14.9c0,0-2.4,7.5-0.1,15.9l0.6-0.5c-5,4.6-8.9,8.3-8.9,8.3l-0.8,2.1
                                c2.6-1.6,9.3-7.7,16.1-13.8c14,7.7,20.9,3.1,20.9,3.1c-8.2,2.8-18.8-3.2-20-4c3.7-3.3,7.3-6.4,10.2-8.8C58.9,84.9,66.6,82,66.6,82
                                z" />
            <path class="leaves1-2" d="M59,88.9c-10.9,11.2-21.7,9.4-27.4,10.3c-3.7,0.5-6.4,3.3-8.8,5c0.9,0.3,5.2,2,6.8,2.3
                                c6,1.1,20.8,0.9,29.8-9.1c7.4-8.3,12.4-19.3,13.9-31l0.5-8.6C73.8,57.8,69.9,77.6,59,88.9z"
            />
            <path class="leaves1-3" d="M71.9,68.8c0,0-2.4,23.4-21.9,33.3c-8.8,4.6-19.3,4.4-27.1,1.3C23,103.4,57.4,112.8,71.9,68.8z" />
            <path class="leaves1-4" d="M26,96.5c0,0,0.8-17.9,13.6-27.9c6.4-5,15.1-7,22.7-6.3C62.3,62.4,33.8,62.3,26,96.5z" />
        </g>
        <path class="leaves1-5" d="M48,45.3c0,0-6.5,5.4-13.6,9.4c-6.8,3.8-16,12.9-15.1,27.1c1,14.3,4,18.9,3.5,21.5c0,0,5.1-0.2,6.7-0.6
                            c5.4-1.3,17.7-7.1,21.4-18.9C54.7,71.7,53.8,57.6,48,45.3z" />
        <g>
            <path class="leaves1-5" d="M46.2,40.9c0,0-6.5,5.4-13.6,9.4c-6.8,3.8-16,12.9-15.1,27.1c1,14.3,4,18.9,3.5,21.5c0,0,5.1-0.2,6.7-0.6
                                c5.4-1.3,17.7-7.1,21.4-18.9C53,67.2,52.1,53.2,46.2,40.9z" />
            <path class="leaves1-1" d="M49.4,63.8c-5.7,4.4-14,4.3-14.1,4.3c0.2-0.5,0.5-0.9,0.7-1.4c4.4-8.5,10.2-25.9,10.2-25.9S39.2,60,35.3,65.3
                                c0,0-5.2-7.4-3.2-13.4c0,0-3,6,2.4,14.5c-1.2,2.1-2.9,5.5-4.7,9.3c0,0-6.4-8.4-6.9-15.5c0,0,0,8.2,6.4,16.7l0-0.1
                                c-1.4,3.1-2.9,6.5-4.1,9.5l0.2-0.5c0,0-5-5.6-6.4-12.1c0,0,0.9,7.2,5.9,13.3l0.3-0.6C22.9,92.1,21,96.7,21,96.7l0.1,2.1
                                c1.5-2.3,4.8-9.9,8.2-17.6C43.9,82.3,48,75.9,48,75.9c-5.8,5.4-16.9,4.4-18.2,4.3c1.8-4.1,3.6-8.1,5.1-11.2
                                C44,69.1,49.4,63.8,49.4,63.8z" />
            <path class="leaves1-2" d="M45.7,72.4c-4.8,13.5-14.5,16.1-19,18.9c-2.9,1.9-4,5.2-5.4,7.5c0.9,0,5.1-0.3,6.5-0.6
                                c5.4-1.3,17.7-7.1,21.4-18.9c3-9.7,3-20.7-0.1-31.1l-2.8-7.3C46.2,40.9,50.5,58.9,45.7,72.4z"
            />
            <path class="leaves1-3" d="M48.8,50.7c0,0,6.9,20.4-5.6,36c-5.6,7.1-14.4,10.9-22.1,11.3C21.1,98.1,53.4,93,48.8,50.7z" />
            <path class="leaves1-4" d="M21,91.3c0,0-6.1-15.3,0.8-28.4c3.4-6.6,9.9-11.6,16.5-13.8C38.3,49.1,14.6,59.7,21,91.3z" />
        </g>
        <path class="leaves1-5" d="M67.9,106.2c0,0-7.1-4.6-13-10.1c-5.7-5.3-17.1-11.5-30.3-6.3c-13.3,5.2-16.9,9.5-19.4,9.8
                            c0,0,1.7,4.8,2.6,6.2c2.9,4.8,12.1,14.8,24.4,14.8C44.7,120.5,57.9,115.4,67.9,106.2z" />
        <g>
            <path class="leaves1-6" d="M72.1,114.9c0,0-6.2-5.7-11.1-12.2c-4.7-6.2-14.8-14.3-28.8-11.5c-14,2.8-18.3,6.4-20.8,6.3
                                c0,0,0.9,5,1.5,6.5c2,5.2,9.3,16.7,21.4,18.8C46.8,125,60.7,122.3,72.1,114.9z" />
            <path class="leaves1-1" d="M49.8,121c-5.1-5.1-6-13.4-6.1-13.4c0.5,0.2,1,0.3,1.4,0.5c9,3.3,27,6.8,27,6.8s-19.8-4.6-25.7-7.7
                                c0,0,6.7-6.1,12.8-4.8c0,0-6.3-2.2-14.1,4.3c-2.2-1-5.8-2.2-9.9-3.4c0,0,7.5-7.4,14.5-8.8c0,0-8.2,1-15.7,8.5l0.1,0
                                c-3.3-1-6.8-2-9.9-2.9l0.5,0.1c0,0,5-5.7,11.2-7.9c0,0-7,1.8-12.4,7.5l0.7,0.2c-6-1.7-10.8-3-10.8-3l-2,0.4
                                c2.5,1.2,10.5,3.5,18.5,5.9c0.7,14.6,7.7,17.8,7.7,17.8c-6.1-5.1-6.5-16.2-6.6-17.5c4.3,1.3,8.5,2.6,11.8,3.7
                                C43.8,116.4,49.8,121,49.8,121z" />
            <path class="leaves1-2" d="M40.8,118.4C26.8,115.3,23,106,19.6,102c-2.2-2.7-5.7-3.3-8.1-4.4c0.2,0.8,0.9,5,1.5,6.4
                                c2,5.2,9.3,16.7,21.4,18.8c10,1.8,21,0.4,30.8-4.1l6.9-3.8C72.1,114.9,54.8,121.5,40.8,118.4z"
            />
            <path class="leaves1-3" d="M62.7,118.8c0,0-19.4,9.5-36.5-1c-7.8-4.7-12.7-12.9-14-20.5C12.1,97.3,21.4,128.7,62.7,118.8z" />
            <path class="leaves1-4" d="M18.9,96.3c0,0,14.4-8,28.3-2.8c7,2.6,12.8,8.4,15.8,14.6C63,108.1,49.4,86,18.9,96.3z" />
        </g>
    </g>
</svg>