<svg version="1.1" xmlns="http://www.w3.org/2000/svg" xmlns:xlink="http://www.w3.org/1999/xlink" viewBox="0 0 77.2 75.2" style="enable-background:new 0 0 77.2 75.2;">
	<style type="text/css">
		.leaves2-0{fill:#00853F;}
		.leaves2-1{fill:#A6CE39;}
		.leaves2-2{opacity:0.3;fill:#00B259;}
		.leaves2-3{opacity:0.5;fill:#FFFFFF;}
		.leaves2-4{opacity:0.4;fill:#FFFFFF;}
		.leaves2-5{fill:#00A94F;}
		.leaves2-6{fill:#48B749;}
	</style>
	<g>
		<g>
			<path class="leaves2-0" d="M24.7,0c0,0-0.8,8.9-3.1,17.2c-2.2,7.9-2.3,21.6,9,31.5C42.1,58.6,47.8,59.8,49.4,62c0,0,3.6-4,4.5-5.5
				c3.1-5,7.9-18.6,1.8-30.1C49.5,14.6,38.3,4.8,24.7,0z"/>
			<path class="leaves2-1" d="M44.3,14.7c-1,7.6-7.3,13.7-7.3,13.7c-0.2-0.5-0.3-1.1-0.5-1.5C33.4,17.3,24.7,0,24.7,0s9,19.6,10.2,26.4
				c0,0-9.5-1.6-12.4-7.6c0,0,2.2,6.7,12.7,9c0.6,2.5,2,6.3,3.5,10.5c0,0-11.1-1.5-16.8-6.4c0,0,6.2,6.1,17.3,7.7l0-0.1
				c1.3,3.4,2.7,7,4,10.2L43,49.1c0,0-8-0.4-13.8-4.2c0,0,6,4.7,14.4,5.5l-0.3-0.7c2.5,6.1,4.5,10.9,4.5,10.9l1.7,1.4
				c-0.6-2.9-3.8-11-7.1-19.3c11.7-10.1,9.9-18,9.9-18C52,33.2,43,40.7,41.9,41.6c-1.7-4.4-3.4-8.8-4.6-12.2
				C44.2,22.8,44.3,14.7,44.3,14.7z"/>
			<path class="leaves2-2" d="M47.9,24c6.5,13.7,1.2,22.9,0,28.3c-0.8,3.6,0.9,6.9,1.6,9.6c0.6-0.7,3.6-4,4.4-5.4c3.1-5,7.9-18.6,1.8-30.1
				c-5-9.5-13.3-17.7-23.4-23.1L24.7,0C24.7,0,41.4,10.3,47.9,24z"/>
			<path class="leaves2-3" d="M34,5.4c0,0,20.5,10.1,22.8,31.1c1.1,9.6-2.5,19-8,25C48.9,61.5,69.1,33.5,34,5.4z"/>
			<path class="leaves2-4" d="M43.6,56.5c0,0-16-6.8-20.7-21.8c-2.4-7.5-1.3-16.1,2-22.7C24.9,12,15.2,37.8,43.6,56.5z"/>
		</g>
		<path class="leaves2-5" d="M4.6,19.2c0,0,2.7,7.7,3.9,15.5c1.2,7.4,6.3,18.9,19.5,22.8c13.3,3.9,18.5,2.8,20.7,4.1c0,0,1.5-4.7,1.7-6.3
			c0.6-5.4-0.5-18.5-9.9-25.8C30.8,22,17.8,18.1,4.6,19.2z"/>
		<g>
			<path class="leaves2-5" d="M0,19.3c0,0,2.7,7.7,3.9,15.5c1.2,7.4,6.3,18.9,19.5,22.8c13.3,3.9,18.5,2.8,20.7,4c0,0,1.5-4.7,1.7-6.3
				c0.6-5.4-0.5-18.5-9.9-25.8C26.2,22.1,13.1,18.1,0,19.3z"/>
			<path class="leaves2-1" d="M21.9,24.2c2,6.7-0.9,14.2-0.9,14.2c-0.4-0.4-0.7-0.7-1-1.1c-6.2-6.9-20-18-20-18s14.9,12.9,18.5,18.2
				c0,0-8.5,2.2-13.2-1.7c0,0,4.4,4.8,14,2.7c1.5,1.8,4,4.5,6.9,7.4c0,0-9.8,3-16.4,1c0,0,7.5,2.8,17.3-0.1L27,46.7
				c2.4,2.3,4.9,4.8,7.2,7l-0.4-0.4c0,0-6.8,2.7-13.1,1.7c0,0,6.8,1.7,14.1-0.9l-0.5-0.5c4.4,4.2,7.9,7.4,7.9,7.4l1.9,0.6
				c-1.6-2.2-7.4-7.7-13.2-13.4c5.9-12.8,1.5-18.7,1.5-18.7c2.9,7.1-1.7,16.8-2.3,17.9c-3.1-3-6.2-6-8.5-8.5
				C24.9,30.9,21.9,24.2,21.9,24.2z"/>
			<path class="leaves2-2" d="M28.4,30.5c10.6,9,9.7,18.6,10.8,23.6c0.7,3.3,3.3,5.4,5,7.4c0.3-0.8,1.5-4.7,1.6-6.1
				c0.6-5.4-0.5-18.5-9.9-25.8c-7.8-6-17.8-9.8-28.3-10.4L0,19.3C0,19.3,17.8,21.5,28.4,30.5z"/>
			<path class="leaves2-3" d="M9.8,20.3c0,0,20.9,0.6,30.8,17.3c4.6,7.5,5,16.8,2.8,23.9C43.4,61.4,49.7,30.4,9.8,20.3z"/>
			<path class="leaves2-4" d="M37.2,59.2c0,0-15.9,0.4-25.5-10.4C6.9,43.5,4.5,36,4.8,29.2C4.8,29.2,6.4,54.4,37.2,59.2z"/>
		</g>
		<path class="leaves2-5" d="M69.5,23.2c0,0-7,4.2-14.4,6.9c-7.1,2.6-17.3,9.9-18.5,23.6c-1.2,13.8,1,18.7,0.1,21.1c0,0,4.9,0.5,6.5,0.4
			c5.4-0.4,18-4.1,23.3-14.8C72,49.4,73.2,35.8,69.5,23.2z"/>
		<g>
			<path class="leaves2-6" d="M76,20.9c0,0-7.3,3.7-14.9,5.9c-7.2,2.1-18,8.6-20.2,22.2c-2.2,13.7-0.4,18.7-1.4,21c0,0,4.8,0.9,6.4,0.9
				c5.4,0,18.3-2.8,24.3-13.1C76.5,47.2,78.8,33.8,76,20.9z"/>
			<path class="leaves2-1" d="M73.9,43.2c-6.4,2.9-14.2,1-14.2,1c0.3-0.4,0.7-0.8,1-1.1C66.7,36,76,20.9,76,20.9S65.1,37.3,60.3,41.6
				c0,0-3.3-8.2,0-13.3c0,0-4.2,5-0.9,14.2c-1.6,1.7-3.9,4.6-6.4,7.8c0,0-4.2-9.3-3.1-16.2c0,0-1.8,7.8,2.3,17.1l0.1-0.1
				c-2,2.6-4.1,5.5-6,8l0.3-0.4c0,0-3.5-6.4-3.4-12.8c0,0-0.8,6.9,2.6,13.8l0.4-0.5c-3.6,4.9-6.3,8.8-6.3,8.8l-0.3,2
				c1.9-1.8,6.7-8.3,11.6-14.8c13.5,4.3,18.8-0.9,18.8-0.9c-6.7,3.8-16.9,0.5-18.1,0c2.6-3.5,5.2-6.9,7.3-9.5
				C67.7,47.1,73.9,43.2,73.9,43.2z"/>
			<path class="leaves2-2" d="M68.5,50.5c-7.5,11.7-17.2,12-22,13.7c-3.2,1.1-4.9,4-6.7,5.9c0.8,0.1,4.9,0.9,6.3,0.8
				c5.4,0,18.3-2.8,24.3-13.1c5-8.5,7.4-18.9,6.7-29.4L76,20.9C76,20.9,76,38.8,68.5,50.5z"/>
			<path class="leaves2-3" d="M76.2,30.8c0,0,2,20.8-13.2,32.8c-6.9,5.5-16,7.1-23.3,5.8C39.7,69.3,71.3,71.6,76.2,30.8z"/>
			<path class="leaves2-4" d="M41.1,62.8c0,0-2.4-15.7,7-26.6c4.7-5.5,11.9-8.7,18.6-9.4C66.7,26.9,42,31.7,41.1,62.8z"/>
		</g>
	</g>
</svg>
