<svg version="1.1" xmlns="http://www.w3.org/2000/svg" xmlns:xlink="http://www.w3.org/1999/xlink" viewBox="0 0 79.2 79.5" style="enable-background:new 0 0 79.2 79.5;" xml:space="preserve">
	<style type="text/css">
		.leaves3-0{fill:#00853F;}
		.leaves3-1{fill:#A6CE39;}
		.leaves3-2{opacity:0.3;fill:#00B259;}
		.leaves3-3{opacity:0.5;fill:#FFFFFF;}
		.leaves3-4{opacity:0.4;fill:#FFFFFF;}
		.leaves3-5{fill:#00A94F;}
		.leaves3-6{fill:#48B749;}
	</style>
	<g>
		<g>
			<path class="leaves3-0" d="M0,25.8c0,0,9.1-0.9,17.7-3.4c8.2-2.4,22.3-2.7,32.6,8.9c10.4,11.7,11.7,17.6,14,19.2c0,0-4.1,3.8-5.6,4.7
				c-5.2,3.2-19.1,8.4-31.1,2.3C15.4,51.2,5.1,39.7,0,25.8z"/>
			<path class="leaves3-1" d="M15.5,45.8c7.8-1.1,14.1-7.7,14.1-7.7c-0.6-0.2-1.1-0.3-1.6-0.5c-10-3-28-11.8-28-11.8S20.3,34.8,27.4,36
				c0,0-1.8-9.8-8-12.7c0,0,7,2.2,9.5,13c2.6,0.6,6.5,2,10.8,3.5c0,0-1.7-11.4-6.9-17.3c0,0,6.4,6.3,8.1,17.7l-0.1,0
				c3.5,1.3,7.2,2.7,10.6,4L50.9,44c0,0-0.5-8.2-4.5-14.2c0,0,4.9,6.1,5.9,14.8l-0.7-0.3c6.3,2.5,11.3,4.5,11.3,4.5l1.5,1.7
				c-3-0.6-11.4-3.8-20-7C34.2,55.6,26,53.9,26,53.9c8.7-0.4,16.3-9.8,17.2-10.9c-4.6-1.7-9.1-3.4-12.7-4.6
				C23.7,45.6,15.5,45.8,15.5,45.8z"/>
			<path class="leaves3-2" d="M25,49.4c14.2,6.5,23.6,1,29.2-0.3c3.7-0.9,7.1,0.8,10,1.5c-0.7,0.6-4.1,3.8-5.5,4.6
				c-5.2,3.2-19.1,8.4-31.1,2.3C17.8,52.4,9.2,44,3.6,33.6L0,25.8C0,25.8,10.8,42.8,25,49.4z"/>
			<path class="leaves3-3" d="M5.7,35.3c0,0,10.7,21,32.4,23.1c9.9,1.1,19.5-2.9,25.7-8.6C63.8,49.9,35.2,71.2,5.7,35.3z"/>
			<path class="leaves3-4" d="M58.6,44.6c0,0-7.2-16.4-22.8-21c-7.8-2.4-16.6-1.1-23.4,2.3C12.4,25.8,38.9,15.5,58.6,44.6z"/>
		</g>
		<path class="leaves3-5" d="M19.6,4.8c0,0,8,2.7,16,3.9c7.7,1.1,19.6,6.2,23.8,19.8c4.2,13.7,3.1,19.1,4.5,21.3c0,0-4.8,1.6-6.5,1.8
			c-5.5,0.7-19.1-0.2-26.8-9.9C22.8,31.8,18.6,18.4,19.6,4.8z"/>
		<g>
			<path class="leaves3-5" d="M19.6,0c0,0,8,2.7,16,3.9c7.7,1.1,19.6,6.2,23.8,19.8c4.2,13.7,3.1,19.1,4.5,21.3c0,0-4.8,1.6-6.5,1.8
				c-5.5,0.7-19.1-0.2-26.8-9.9C22.8,27,18.6,13.6,19.6,0z"/>
			<path class="leaves3-1" d="M24.9,22.5c6.9,2,14.6-1.1,14.7-1.1c-0.4-0.4-0.8-0.7-1.1-1C31.2,14.1,19.6,0,19.6,0s13.5,15.3,19,18.9
				c0,0,2.2-8.8-1.9-13.6c0,0,5,4.5,3,14.4c1.9,1.5,4.7,4.1,7.7,7c0,0,2.9-10.1,0.8-17c0,0,3,7.7,0.1,17.9l-0.1-0.1
				c2.5,2.4,5,5,7.3,7.3l-0.4-0.4c0,0,2.7-7.1,1.6-13.6c0,0,1.8,7-0.7,14.5l-0.5-0.5c4.3,4.5,7.7,8.1,7.7,8.1l0.6,2
				c-2.3-1.6-8.1-7.5-14-13.4c-13.2,6.3-19.3,1.8-19.3,1.8c7.4,3,17.3-2,18.5-2.6c-3.2-3.2-6.3-6.3-8.8-8.6
				C31.9,25.6,24.9,22.5,24.9,22.5z"/>
			<path class="leaves3-2" d="M31.5,29.2C40.9,40,50.8,38.9,56,40c3.4,0.7,5.6,3.4,7.7,5c-0.8,0.3-4.8,1.6-6.3,1.8
				c-5.5,0.7-19.1-0.2-26.8-9.9c-6.3-8-10.3-18.2-11.1-29l0-7.9C19.6,0,22.1,18.3,31.5,29.2z"/>
			<path class="leaves3-3" d="M20.7,10.2c0,0,0.9,21.6,18.3,31.6c7.8,4.6,17.4,5,24.7,2.6C63.7,44.3,31.7,51.2,20.7,10.2z"/>
			<path class="leaves3-4" d="M61.3,37.9c0,0,0.2-16.4-11-26.2c-5.6-4.9-13.4-7.2-20.4-6.9C29.9,4.8,55.9,6.2,61.3,37.9z"/>
		</g>
		<path class="leaves3-5" d="M23.1,68.7c0,0,4.9-6.8,8.5-14.2c3.4-7,11.8-16.9,26-16.9c14.3,0,19.1,2.7,21.7,2.1c0,0,0.1,5.1-0.2,6.7
			c-1,5.5-5.9,18.2-17.4,22.6C49.8,73.7,35.7,73.7,23.1,68.7z"/>
		<g>
			<path class="leaves3-6" d="M22.2,78.4c0,0,3.7-7.6,5.9-15.4c2.1-7.5,8.7-18.7,22.7-21.1c14.1-2.5,19.3-0.6,21.7-1.7c0,0,1,5,1,6.6
				c0,5.6-2.7,18.9-13.2,25.3C49.4,78.7,35.6,81.1,22.2,78.4z"/>
			<path class="leaves3-1" d="M45.3,76c2.9-6.6,0.8-14.7,0.8-14.7c-0.4,0.3-0.8,0.7-1.2,1c-7.2,6.3-22.7,16.1-22.7,16.1S39.1,67,43.4,62
				c0,0-8.5-3.3-13.7,0.1c0,0,5.1-4.4,14.7-1.1c1.7-1.7,4.7-4.1,8-6.8c0,0-9.7-4.2-16.7-3c0,0,8-2,17.7,2.2l-0.1,0.1
				c2.7-2.1,5.6-4.3,8.2-6.3l-0.4,0.3c0,0-6.7-3.5-13.3-3.3c0,0,7.2-0.9,14.3,2.5l-0.6,0.4c5-3.7,9-6.6,9-6.6l2-0.4
				c-1.9,2-8.5,7.1-15.1,12.2c4.6,13.9-0.7,19.4-0.7,19.4c3.9-7,0.2-17.4-0.2-18.7c-3.5,2.7-7,5.5-9.7,7.7C49.2,69.5,45.3,76,45.3,76
				z"/>
			<path class="leaves3-2" d="M52.7,70.3c11.9-7.9,12.1-17.9,13.8-22.9c1.1-3.3,4.1-5.2,6-7c0.2,0.8,0.9,5,0.9,6.5
				c0,5.6-2.7,18.9-13.2,25.3C51.5,77.4,40.8,80,30,79.4l-7.8-1C22.2,78.4,40.7,78.2,52.7,70.3z"/>
			<path class="leaves3-3" d="M32.4,78.6c0,0,21.5,1.8,33.7-14.1c5.6-7.2,7.2-16.6,5.7-24.1C71.8,40.3,74.5,72.9,32.4,78.6z"/>
			<path class="leaves3-4" d="M65.1,41.8c0,0-16.3-2.3-27.4,7.6c-5.6,4.9-8.9,12.4-9.4,19.3C28.3,68.8,33,43.2,65.1,41.8z"/>
		</g>
	</g>
</svg>
