<svg xmlns="http://www.w3.org/2000/svg" viewBox="0 0 3385.5 3385.5" class="circles">
	<style type="text/css">
		.st0{fill-rule:evenodd;clip-rule:evenodd;fill:#4d891c;}
	</style>
	<path class="st0" d="M120.5,1133.9C350.3,487.5,967.5,24.6,1692.8,24.6c921.3,0,1668.1,746.8,1668.1,1668.1
		s-746.8,1668.1-1668.1,1668.1c-921.3,0-1668.1-746.8-1668.1-1668.1C24.6,1496.8,58.4,1308.6,120.5,1133.9L120.5,1133.9L120.5,1133.9
		z M1692.8,0c934.9,0,1692.8,757.9,1692.8,1692.8c0,934.9-757.9,1692.8-1692.8,1692.8C757.9,3385.5,0,2627.7,0,1692.8
		c0-197.2,33.7-386.5,95.7-562.4C327.5,471.9,955,0,1692.8,0L1692.8,0z"/>
	<path class="st0" d="M1692.8,180.2c835.4,0,1512.6,677.2,1512.6,1512.6s-677.2,1512.6-1512.6,1512.6
		c-835.4,0-1512.6-677.2-1512.6-1512.6S857.4,180.2,1692.8,180.2L1692.8,180.2z M1692.8,155.3c849.1,0,1537.4,688.3,1537.4,1537.4
		s-688.3,1537.4-1537.4,1537.4S155.3,2541.9,155.3,1692.8S843.7,155.3,1692.8,155.3L1692.8,155.3z"/>
	<path class="st0" d="M1692.8,351c741.1,0,1341.8,600.7,1341.8,1341.8s-600.7,1341.8-1341.8,1341.8
		C951.7,3034.6,351,2433.8,351,1692.8S951.7,351,1692.8,351L1692.8,351z M1692.8,300.3c769,0,1392.5,623.4,1392.5,1392.5
		c0,769-623.4,1392.5-1392.5,1392.5S300.3,2461.8,300.3,1692.8C300.3,923.7,923.7,300.3,1692.8,300.3L1692.8,300.3z"/>
	<path class="st0" d="M1692.8,502.7c657.3,0,1190.1,532.8,1190.1,1190.1S2350,2882.8,1692.8,2882.8S502.7,2350,502.7,1692.8
		S1035.5,502.7,1692.8,502.7L1692.8,502.7z M1692.8,451.1c685.8,0,1241.7,555.9,1241.7,1241.7c0,685.8-555.9,1241.7-1241.7,1241.7
		c-685.8,0-1241.7-555.9-1241.7-1241.7C451.1,1007,1007,451.1,1692.8,451.1L1692.8,451.1z"/>
	<path class="st0" d="M1692.8,680.1c559.3,0,1012.7,453.4,1012.7,1012.7s-453.4,1012.7-1012.7,1012.7
		c-559.3,0-1012.7-453.4-1012.7-1012.7S1133.5,680.1,1692.8,680.1L1692.8,680.1z M1692.8,628.5c587.8,0,1064.3,476.5,1064.3,1064.3
		c0,587.8-476.5,1064.3-1064.3,1064.3S628.5,2280.6,628.5,1692.8C628.5,1105,1105,628.5,1692.8,628.5L1692.8,628.5z"/>
	<path class="st0" d="M2297.6,1154.8c297.1,334.1,267.1,845.7-66.9,1142.8c-334.1,297.1-845.7,267.1-1142.8-66.9
		c-297.1-334.1-267.1-845.7,66.9-1142.8S2000.5,820.8,2297.6,1154.8L2297.6,1154.8z M2355.5,1103.4
		c325.5,366,292.7,926.6-73.3,1252.1c-366,325.5-926.6,292.7-1252.1-73.3c-325.5-366-292.7-926.6,73.3-1252.1
		C1469.4,704.5,2030,737.3,2355.5,1103.4L2355.5,1103.4z"/>
	<path class="st0" d="M1692.8,1009.1c377.6,0,683.7,306.1,683.7,683.7s-306.1,683.7-683.7,683.7c-377.6,0-683.7-306.1-683.7-683.7
		S1315.2,1009.1,1692.8,1009.1L1692.8,1009.1z M1692.8,1138.1c306.3,0,554.6,248.3,554.6,554.6s-248.3,554.6-554.6,554.6
		c-306.3,0-554.6-248.3-554.6-554.6S1386.4,1138.1,1692.8,1138.1L1692.8,1138.1z"/>
	<path class="st0" d="M1692.8,1241.4c249.3,0,451.4,202.1,451.4,451.4s-202.1,451.4-451.4,451.4s-451.4-202.1-451.4-451.4
		S1443.5,1241.4,1692.8,1241.4L1692.8,1241.4z M1692.8,1370.5c178,0,322.3,144.3,322.3,322.3c0,178-144.3,322.3-322.3,322.3
		c-178,0-322.3-144.3-322.3-322.3C1370.5,1514.8,1514.8,1370.5,1692.8,1370.5L1692.8,1370.5z"/>
</svg>
