<svg version="1.1" xmlns="http://www.w3.org/2000/svg" xmlns:xlink="http://www.w3.org/1999/xlink" viewBox="0 0 409.6 409.6">
	<style type="text/css">
		.st-phone{fill:#FFFFFF;}
	</style>
	<g>
		<path class="st-phone" d="M204.8,25.6C303.6,25.6,384,106,384,204.8S303.6,384,204.8,384S25.6,303.6,25.6,204.8S106,25.6,204.8,25.6
			M204.8,0C91.7,0,0,91.7,0,204.8c0,113.1,91.7,204.8,204.8,204.8c113.1,0,204.8-91.7,204.8-204.8C409.6,91.7,317.9,0,204.8,0
			L204.8,0z M319,273.3l-1.2-3.5c-2.7-8-11.6-16.4-19.8-18.7l-30.3-8.3c-8.2-2.2-19.9,0.8-25.9,6.8l-10.9,10.9
			c-39.8-10.8-71-42-81.8-81.8l10.9-10.9c6-6,9-17.7,6.8-25.9l-8.3-30.3c-2.2-8.2-10.7-17.1-18.7-19.8l-3.5-1.2
			c-8.1-2.7-19.6,0-25.6,6.1l-16.4,16.4c-2.9,2.9-4.8,11.2-4.8,11.3c-0.6,52,19.8,102.2,56.6,139c36.7,36.7,86.7,57.1,138.5,56.6
			c0.3,0,8.9-1.8,11.8-4.8l16.4-16.4C318.9,292.9,321.7,281.3,319,273.3L319,273.3z M319,273.3"/>
	</g>
</svg>
