<svg version="1.1" xmlns="http://www.w3.org/2000/svg" xmlns:xlink="http://www.w3.org/1999/xlink" viewBox="0 0 388.7 392.2">
	<style type="text/css">
		.st-dog{fill:#FFFFFF;}
	</style>
	<g>
		<path class="st-dog" d="M335,49.4C299.3,16.5,254.8,0,201.7,0C145.8,0,98.2,18.7,59,56.2c-39.3,37.5-59,84.2-59,140
			c0,53.5,18.7,99.5,56.1,138.1c37.5,38.6,87.9,57.8,151.4,57.8c38.2,0,75.8-7.8,112.6-23.6c12-5.1,17.8-18.9,13-31
			c-5-12.5-19.3-18.2-31.7-13c-32,13.8-63.4,20.6-93.9,20.6c-48.6,0-86.3-14.8-113-44.5c-26.6-29.6-40-64.4-40-104.3
			c0-43.4,14.3-79.5,42.9-108.6c28.5-29,63.6-43.5,105.2-43.5c38.3,0,70.7,11.9,97.1,35.8c26.4,23.8,39.6,53.8,39.6,90
			c0,24.7-6.1,45.4-18.2,61.8c-12.1,16.5-24.6,24.6-37.7,24.6c-7,0-10.6-3.8-10.6-11.4c0-6.2,0.5-13.4,1.4-21.7L289,101.8h-51.2
			l-3.3,11.9c-13-10.6-27.4-16-42.9-16c-24.6,0-45.8,9.8-63.3,29.4C110.7,146.8,102,172.1,102,203c0,30.2,7.8,54.6,23.4,73
			c15.6,18.6,34.3,27.8,56.2,27.8c19.6,0,36.3-8.2,50.2-24.6c10.5,15.8,25.9,23.6,46.3,23.6c30,0,55.9-13,77.8-39.2
			c21.8-26.1,32.8-57.6,32.8-94.5C388.7,122.3,370.9,82.4,335,49.4L335,49.4z M217.1,233.5c-9,12.2-19.8,18.3-32.4,18.3
			c-8.6,0-15.4-4.5-20.6-13.4c-5.3-9-7.9-20.1-7.9-33.4c0-16.5,3.7-29.8,11-39.8c7.4-10.1,16.5-15.2,27.4-15.2
			c9.4,0,17.8,3.8,25.2,11.4c7.4,7.6,11,17.7,11,30.3C230.7,207.4,226.2,221.3,217.1,233.5L217.1,233.5z M217.1,233.5"/>
	</g>
</svg>
